<svg width="243" height="62" viewBox="0 0 243 62" fill="none" xmlns="http://www.w3.org/2000/svg">
<path opacity="0.4" d="M242.326 1.91335C242.299 1.08536 241.606 0.435995 240.778 0.462953L227.285 0.902249C226.458 0.929206 225.808 1.62228 225.835 2.45026C225.862 3.27825 226.555 3.92762 227.383 3.90066L239.377 3.51017L239.767 15.5038C239.794 16.3318 240.487 16.9812 241.315 16.9542C242.143 16.9273 242.793 16.2342 242.766 15.4062L242.326 1.91335ZM239.733 0.936574C219.383 22.6562 183.102 48.7022 140.479 56.2898C97.9787 63.8555 49.0029 53.1072 2.95142 0.969132L0.702917 2.95514C47.4322 55.8606 97.4523 66.9964 141.005 59.2433C184.435 51.5121 221.264 25.0362 241.922 2.98774L239.733 0.936574Z" fill="white"/>
</svg>
