<svg width="243" height="62" viewBox="0 0 243 62" fill="none" xmlns="http://www.w3.org/2000/svg">
<path opacity="0.4" d="M240.443 61.4593C241.27 61.5105 241.982 60.8818 242.033 60.055L242.868 46.5808C242.92 45.754 242.291 45.0421 241.464 44.9909C240.637 44.9396 239.925 45.5684 239.874 46.3952L239.132 58.3722L227.155 57.6298C226.328 57.5785 225.616 58.2073 225.565 59.0341C225.514 59.8609 226.142 60.5728 226.969 60.624L240.443 61.4593ZM2.63075 60.9877C22.9807 39.2681 59.2614 13.2221 101.884 5.63453C144.385 -1.93124 193.36 8.81706 239.412 60.9552L241.66 58.9692C194.931 6.06366 144.911 -5.07212 101.358 2.68097C57.9286 10.4122 21.0996 36.8881 0.44152 58.9366L2.63075 60.9877Z" fill="white"/>
</svg>
