<?xml version="1.0" encoding="UTF-8" standalone="no"?>
<svg width="51px" height="77px" viewBox="0 0 51 77" version="1.1" xmlns="http://www.w3.org/2000/svg" xmlns:xlink="http://www.w3.org/1999/xlink">
    <!-- Generator: Sketch 39.1 (31720) - http://www.bohemiancoding.com/sketch -->
    <title>commodities-icn</title>
    <desc>Created with Sketch.</desc>
    <defs></defs>
    <g id="Page-1" stroke="none" stroke-width="1" fill="none" fill-rule="evenodd" stroke-linecap="round" stroke-linejoin="round">
        <g id="Desktop---demo-button" transform="translate(-1259.000000, -665.000000)" stroke="#0064fa" stroke-width="2.3328">
            <g id="commodities-icn" transform="translate(1260.000000, 666.000000)">
                <path d="M0.611210526,74.226 L48.0544934,74.226 L0.611210526,74.226 Z M32.4415461,11.993 C33.3864079,13.533 33.9337895,15.36 33.9337895,17.319 C33.9337895,22.816 29.6243684,27.271 24.3091579,27.271 C18.9939474,27.271 14.6845263,22.816 14.6845263,17.319 C14.6845263,15.55 15.1303618,13.888 15.9137171,12.449 L24.3091579,0.638 L32.4415461,11.993 L32.4415461,11.993 Z M46.2431053,43.371 C45.8581974,45.151 44.9965066,46.843 43.6560987,48.228 C39.8979276,52.115 33.8032303,52.115 30.0450592,48.228 C26.2859211,44.342 26.2859211,38.04 30.0450592,34.154 C31.2549079,32.903 32.7065329,32.054 34.2451974,31.609 L48.2575855,29.396 L46.2431053,43.371 L46.2431053,43.371 Z M2.46321711,43.371 C2.84715789,45.151 3.70981579,46.843 5.04925658,48.228 C8.80839474,52.115 14.902125,52.115 18.6612632,48.228 C22.4194342,44.342 22.4194342,38.04 18.6612632,34.154 C17.4514145,32.903 15.9988224,32.054 14.461125,31.609 L0.447769737,29.396 L2.46321711,43.371 L2.46321711,43.371 Z" id="Stroke-1"></path>
                <path d="M22.96875,54.027 L22.96875,74.096" id="Stroke-2" stroke-dasharray="1.555200004577637,6.220800018310547"></path>
            </g>
        </g>
    </g>
</svg>