<?xml version="1.0" encoding="UTF-8"?>
<svg width="60px" height="60px" viewBox="0 0 60 60" version="1.1" xmlns="http://www.w3.org/2000/svg" xmlns:xlink="http://www.w3.org/1999/xlink">
    <!-- Generator: Sketch 50.2 (55047) - http://www.bohemiancoding.com/sketch -->
    <title>icon/blockchain_60x60</title>
    <desc>Created with Sketch.</desc>
    <defs>
        <path d="M34.473043,29.8775573 L25.089378,29.8775573 L25.089378,42.4316319 L34.473043,42.4316319 L34.6591927,42.4316319 C40.8045739,42.4316319 40.8751808,37.0541434 40.8751808,36.8252738 C40.9283943,30.283633 34.9958669,29.8947785 34.6347386,29.8772129 C34.6331887,29.8772129 34.631811,29.8775573 34.6302611,29.8775573 L34.473043,29.8775573 Z M31.4918716,17.3164221 L25.089378,17.3164221 L25.089378,28.1633602 L33.2103307,28.1633602 L34.6302611,28.1633602 C36.9082799,28.1633602 39.3385341,26.7054143 39.5754977,23.9186815 C39.7647586,21.692154 39.2336571,20.0192877 37.9968313,18.9469243 C36.8168159,17.9233318 35.2077499,17.3770444 33.2103307,17.3211905 L33.2103307,17.3164221 L32.8656058,17.3164221 L31.4918716,17.3164221 Z M30,0 C46.5419853,0 60,13.4580147 60,30 C60,46.5421575 46.5419853,60 30,60 C13.4580147,60 0,46.5421575 0,30 C0,13.4580147 13.4580147,0 30,0 Z M1.71419715,30 C1.71419715,45.5968864 14.4031136,58.2858029 30,58.2858029 C45.5968864,58.2858029 58.2858029,45.5968864 58.2858029,30 C58.2858029,14.4031136 45.5968864,1.71419715 30,1.71419715 C14.4031136,1.71419715 1.71419715,14.4031136 1.71419715,30 Z M23.3751808,11.3985328 L25.089378,11.3985328 L25.089378,15.6023972 L29.7775022,15.6023972 L29.7775022,11.4594958 L31.4918716,11.4594958 L31.4918716,15.6023972 L32.8656058,15.6023972 C35.4477509,15.6023972 37.552008,16.2919336 39.1199972,17.6518909 C40.7703038,19.0831439 41.5183922,21.3001998 41.283323,24.0638562 C41.1319487,25.8455604 40.3199697,27.3551698 38.9353861,28.4290831 C38.6391816,28.6586416 38.319212,28.8635737 37.9818489,29.0423297 C40.1656678,30.0528691 42.6269202,32.2160226 42.589378,36.8323345 C42.589378,36.8984639 42.4987945,44.145829 34.6591927,44.145829 L31.4918716,44.145829 L31.4918716,47.9227802 L29.7775022,47.9227802 L29.7775022,44.145829 L25.089378,44.145829 L25.089378,47.8618172 L23.3751808,47.8618172 L23.3751808,44.145829 L18.4397603,44.145829 L18.4397603,42.4316319 L23.3751808,42.4316319 L23.3751808,17.3164221 L18.4397603,17.3164221 L18.4397603,15.6023972 L23.3751808,15.6023972 L23.3751808,11.3985328 Z" id="path-1"></path>
    </defs>
    <g id="icon/blockchain_60x60" stroke="none" stroke-width="1" fill="none" fill-rule="evenodd">
        <mask id="mask-2" fill="white">
            <use xlink:href="#path-1"></use>
        </mask>
        <g id="Combined-Shape"></g>
        <g id="color/flat/brand-blue" mask="url(#mask-2)" fill="#0064fa">
            <rect id="Rectangle-3" x="0" y="0" width="59.7986577" height="59.7986577"></rect>
        </g>
    </g>
</svg>