<svg width="31" height="45" viewBox="0 0 31 45" fill="none" xmlns="http://www.w3.org/2000/svg">
<path d="M16.9404 2.68939V7.44583" stroke="black" stroke-width="4" stroke-linecap="round" stroke-linejoin="round"/>
<path d="M15.3545 37.5699V42.3264" stroke="black" stroke-width="4" stroke-linecap="round" stroke-linejoin="round"/>
<path d="M26.4531 13.7877C26.4531 12.7467 26.248 11.7159 25.8496 10.7541C25.4513 9.79227 24.8673 8.91836 24.1312 8.18223C23.3951 7.4461 22.5212 6.86218 21.5594 6.46379C20.5976 6.0654 19.5667 5.86035 18.5257 5.86035H11.391C9.28856 5.86035 7.27219 6.69556 5.78552 8.18223C4.29884 9.66891 3.46364 11.6853 3.46364 13.7877C3.46364 15.8902 4.29884 17.9066 5.78552 19.3933C7.27219 20.8799 9.28856 21.7151 11.391 21.7151H20.1112C22.2136 21.7151 24.23 22.5503 25.7167 24.037C27.2034 25.5237 28.0386 27.5401 28.0386 29.6425C28.0386 31.745 27.2034 33.7614 25.7167 35.248C24.23 36.7347 22.2136 37.5699 20.1112 37.5699H10.5983C8.49582 37.5699 6.47945 36.7347 4.99278 35.248C3.5061 33.7614 2.6709 31.745 2.6709 29.6425" stroke="black" stroke-width="4" stroke-linecap="round" stroke-linejoin="round"/>
</svg>
