<?xml version="1.0" encoding="UTF-8" standalone="no"?>
<svg width="66px" height="69px" viewBox="0 0 66 69" version="1.1" xmlns="http://www.w3.org/2000/svg" xmlns:xlink="http://www.w3.org/1999/xlink">
    <!-- Generator: Sketch 39.1 (31720) - http://www.bohemiancoding.com/sketch -->
    <title>forex-icn</title>
    <desc>Created with Sketch.</desc>
    <defs></defs>
    <g id="Page-1" stroke="none" stroke-width="1" fill="none" fill-rule="evenodd">
        <g id="Desktop---demo-button" transform="translate(-749.000000, -675.000000)">
            <g id="forex-icn" transform="translate(751.000000, 677.000000)">
                <ellipse id="Oval-45-Copy-3" stroke="#0064fa" stroke-width="2.24532" cx="14.7619048" cy="15.1162791" rx="14.7619048" ry="15.1162791"></ellipse>
                <path d="M47.2380952,42.3255814 C55.3908701,42.3255814 62,35.5577927 62,27.2093023 C62,18.8608119 55.3908701,12.0930233 47.2380952,12.0930233 C39.0853204,12.0930233 32.4761905,18.8608119 32.4761905,27.2093023 C32.4761905,35.5577927 39.0853204,42.3255814 47.2380952,42.3255814 Z" id="Oval-45-Copy-4" stroke="#0064fa" stroke-width="2.24532"></path>
                <ellipse id="Oval-45-Copy-5" stroke="#0064fa" stroke-width="2.24532" cx="20.6666667" cy="49.8837209" rx="14.7619048" ry="15.1162791"></ellipse>
                <path d="M12.9757143,13.597093 L17.1607143,13.597093 L17.1607143,15.2976744 L12.9757143,15.2976744 L12.9757143,15.4790698 C12.9757143,16.2348875 12.9461908,17.0284842 12.8871429,17.8598837 C12.8280949,18.6912832 12.7395244,19.4848799 12.6214286,20.2406977 L19.0207143,20.2406977 L19.0207143,22.0546512 L10.2964286,22.0546512 C10.4588103,20.98139 10.6027375,19.9119239 10.7282143,18.8462209 C10.8536911,17.7805179 10.9164286,16.7110519 10.9164286,15.6377907 L10.9164286,15.2976744 L8.85714286,15.2976744 L8.85714286,13.597093 C8.85714286,13.597093 10.5383619,13.9426073 10.9164286,13.597093 C11.2944952,13.2515787 10.9164286,11.7151163 10.9164286,11.7151163 C10.9164286,10.596506 11.0308322,9.6706432 11.2596429,8.9375 C11.4884535,8.2043568 11.8132122,7.62238588 12.2339286,7.19156977 C12.654645,6.76075366 13.1602351,6.46221013 13.7507143,6.29593023 C14.3411934,6.12965033 14.9907107,6.04651163 15.6992857,6.04651163 C16.3488128,6.04651163 16.8949978,6.10697614 17.3378571,6.22790698 C17.7807165,6.34883781 18.2088075,6.49244103 18.6221429,6.65872093 L18.1128571,8.47267442 C17.3304723,8.09476555 16.496433,7.90581395 15.6107143,7.90581395 C15.2121409,7.90581395 14.8504778,7.96627847 14.5257143,8.0872093 C14.2009508,8.20814014 13.9241678,8.41220787 13.6953571,8.6994186 C13.4665465,8.98662934 13.2894054,9.3720906 13.1639286,9.85581395 C13.0384518,10.3395373 12.9757143,10.9441824 12.9757143,11.6697674 L12.9757143,13.597093 Z" id="£-copy" fill="#0064fa"></path>
                <path d="M49.6516667,33.0252907 C50.109288,32.65494 50.3380952,32.182561 50.3380952,31.6081395 C50.3380952,31.1848816 50.2384534,30.8220945 50.0391667,30.5197674 C49.83988,30.2174403 49.5741683,29.9529081 49.2420238,29.7261628 C48.9098793,29.4994175 48.5260736,29.2953497 48.0905952,29.1139535 C47.6551169,28.9325572 47.2085737,28.7587218 46.7509524,28.5924419 C46.308093,28.426162 45.8689307,28.2409894 45.4334524,28.0369186 C44.997974,27.8328478 44.6104779,27.5834317 44.2709524,27.2886628 C43.9314269,26.9938939 43.6546439,26.6386649 43.4405952,26.2229651 C43.2265465,25.8072654 43.1195238,25.297096 43.1195238,24.6924419 C43.1195238,23.6191807 43.4332111,22.7386662 44.0605952,22.0508721 C44.6879793,21.363078 45.5995178,20.9284893 46.7952381,20.747093 L46.7952381,18.1395349 L48.6330952,18.1395349 L48.6330952,20.6790698 C49.2826223,20.7093025 49.8878543,20.7924412 50.4488095,20.9284884 C51.0097647,21.0645356 51.4526174,21.1930227 51.777381,21.3139535 L51.3566667,23.0825581 C51.0023792,22.9465109 50.5595265,22.8066868 50.0280952,22.6630814 C49.496664,22.519476 48.8323849,22.4476744 48.0352381,22.4476744 C47.1495194,22.4476744 46.4667881,22.6215099 45.9870238,22.969186 C45.5072595,23.3168622 45.267381,23.8081364 45.267381,24.4430233 C45.267381,24.7906994 45.3374993,25.0854639 45.4777381,25.3273256 C45.6179769,25.5691873 45.8209511,25.7845921 46.0866667,25.9735465 C46.3523823,26.1625009 46.6660696,26.3325574 47.0277381,26.4837209 C47.3894066,26.6348845 47.4141275,26.6199248 48.2345238,26.9598837 C49.0549201,27.2998426 49.356426,27.420929 49.8730952,27.6627907 C50.3897645,27.9046524 50.8436885,28.1956378 51.234881,28.5357558 C51.6260734,28.8758738 51.9397607,29.2802302 52.1759524,29.7488372 C52.412144,30.2174442 52.5302381,30.784299 52.5302381,31.4494186 C52.5302381,32.5226798 52.2128603,33.3880781 51.5780952,34.0456395 C50.9433302,34.703201 49.9616733,35.1151154 48.6330952,35.2813953 L48.6330952,38.2063953 L46.7952381,38.2063953 L46.7952381,35.3494186 C45.7618996,35.3191859 44.9204794,35.2020359 44.2709524,34.9979651 C43.6214253,34.7938943 43.1342873,34.6011637 42.8095238,34.4197674 L43.3630952,32.719186 C43.8059546,32.930815 44.3373779,33.1273247 44.957381,33.3087209 C45.5773841,33.4901172 46.3449954,33.580814 47.2602381,33.580814 C48.3969104,33.580814 49.1940453,33.3956414 49.6516667,33.0252907 Z" id="$-copy" fill="#0064fa"></path>
                <path d="M16.7990476,47.6313953 C17.1385731,45.8627819 17.8102331,44.5363416 18.8140476,43.6520349 C19.8178622,42.7677281 21.102135,42.3255814 22.6669048,42.3255814 C23.3164318,42.3255814 23.855236,42.3671507 24.2833333,42.4502907 C24.7114307,42.5334306 25.1395217,42.6430226 25.567619,42.7790698 L25.1247619,44.5930233 C24.7704744,44.4569761 24.3829783,44.3473841 23.9622619,44.2642442 C23.5415455,44.1811042 23.1097641,44.1395349 22.6669048,44.1395349 C22.1059496,44.1395349 21.6151212,44.2226736 21.1944048,44.3889535 C20.7736884,44.5552334 20.4120253,44.7895334 20.1094048,45.0918605 C19.8067842,45.3941876 19.5595248,45.7607537 19.367619,46.1915698 C19.1757133,46.6223859 19.0280958,47.1023229 18.9247619,47.6313953 L24.0840476,47.6313953 L23.7740476,49.2639535 L18.7033333,49.2639535 C18.6885714,49.4604661 18.6811905,49.6569758 18.6811905,49.8534884 L18.6811905,50.4656977 L18.6811905,51.0325581 C18.6811905,51.2139544 18.6885714,51.3877899 18.7033333,51.5540698 L23.3311905,51.5540698 L23.0211905,53.1866279 L18.8804762,53.1866279 C19.1314298,54.5319835 19.5853539,55.4691834 20.2422619,55.9982558 C20.89917,56.5273282 21.7221379,56.7918605 22.7111905,56.7918605 C23.3311936,56.7918605 23.8663073,56.731396 24.3165476,56.6104651 C24.766788,56.4895343 25.1690458,56.3459311 25.5233333,56.1796512 L25.9661905,57.9709302 C25.7152368,58.1069774 25.279765,58.2505806 24.6597619,58.4017442 C24.0397588,58.5529077 23.3533371,58.6284884 22.6004762,58.6284884 C20.8733247,58.6284884 19.5373857,58.1485513 18.592619,57.1886628 C17.6478524,56.2287743 17.0352395,54.894776 16.7547619,53.1866279 L14.7619048,53.1866279 L14.7619048,51.5540698 L16.577619,51.5540698 C16.5628571,51.3877899 16.5554762,51.2139544 16.5554762,51.0325581 L16.5554762,50.4656977 L16.5554762,49.8534884 C16.5554762,49.6569758 16.5628571,49.4604661 16.577619,49.2639535 L14.7619048,49.2639535 L14.7619048,47.6313953 L16.7990476,47.6313953 Z" id="€-copy" fill="#0064fa"></path>
            </g>
        </g>
    </g>
</svg>